<mxfile><diagram id="6fJ8YOqzRUtk9nVufxMQ" name="Page-1"><mxGraphModel dx="1242" dy="587" grid="1" gridSize="10" guides="1" tooltips="1" connect="1" arrows="1" fold="1" page="1" pageScale="1" pageWidth="850" pageHeight="1100" math="0" shadow="0"><root><mxCell id="0"/><mxCell id="1" parent="0"/><mxCell id="2" value="" style="shape=table;startSize=0;container=1;collapsible=0;childLayout=tableLayout;" parent="1" vertex="1"><mxGeometry x="251" y="240" width="330" height="40" as="geometry"/></mxCell><mxCell id="3" style="shape=tableRow;horizontal=0;startSize=0;swimlaneHead=0;swimlaneBody=0;top=0;left=0;bottom=0;right=0;collapsible=0;dropTarget=0;fillColor=none;points=[[0,0.5],[1,0.5]];portConstraint=eastwest;" parent="2" vertex="1"><mxGeometry width="330" height="40" as="geometry"/></mxCell><mxCell id="4" style="shape=partialRectangle;html=1;whiteSpace=wrap;connectable=0;overflow=hidden;fillColor=none;top=0;left=0;bottom=0;right=0;pointerEvents=1;" parent="3" vertex="1"><mxGeometry width="66" height="40" as="geometry"><mxRectangle width="66" height="40" as="alternateBounds"/></mxGeometry></mxCell><mxCell id="5" style="shape=partialRectangle;html=1;whiteSpace=wrap;connectable=0;overflow=hidden;fillColor=none;top=0;left=0;bottom=0;right=0;pointerEvents=1;" parent="3" vertex="1"><mxGeometry x="66" width="66" height="40" as="geometry"><mxRectangle width="66" height="40" as="alternateBounds"/></mxGeometry></mxCell><mxCell id="6" style="shape=partialRectangle;html=1;whiteSpace=wrap;connectable=0;overflow=hidden;fillColor=none;top=0;left=0;bottom=0;right=0;pointerEvents=1;" parent="3" vertex="1"><mxGeometry x="132" width="66" height="40" as="geometry"><mxRectangle width="66" height="40" as="alternateBounds"/></mxGeometry></mxCell><mxCell id="7" style="shape=partialRectangle;html=1;whiteSpace=wrap;connectable=0;overflow=hidden;fillColor=none;top=0;left=0;bottom=0;right=0;pointerEvents=1;" parent="3" vertex="1"><mxGeometry x="198" width="66" height="40" as="geometry"><mxRectangle width="66" height="40" as="alternateBounds"/></mxGeometry></mxCell><mxCell id="8" style="shape=partialRectangle;html=1;whiteSpace=wrap;connectable=0;overflow=hidden;fillColor=none;top=0;left=0;bottom=0;right=0;pointerEvents=1;" parent="3" vertex="1"><mxGeometry x="264" width="66" height="40" as="geometry"><mxRectangle width="66" height="40" as="alternateBounds"/></mxGeometry></mxCell><mxCell id="9" value="user" style="text;html=1;strokeColor=none;fillColor=none;align=center;verticalAlign=middle;whiteSpace=wrap;rounded=0;" parent="1" vertex="1"><mxGeometry x="251" y="200" width="60" height="30" as="geometry"/></mxCell><mxCell id="10" value="user name" style="text;html=1;strokeColor=none;fillColor=none;align=center;verticalAlign=middle;whiteSpace=wrap;rounded=0;" parent="1" vertex="1"><mxGeometry x="321" y="245" width="60" height="30" as="geometry"/></mxCell><mxCell id="11" value="passowrd" style="text;html=1;strokeColor=none;fillColor=none;align=center;verticalAlign=middle;whiteSpace=wrap;rounded=0;" parent="1" vertex="1"><mxGeometry x="386" y="246" width="60" height="30" as="geometry"/></mxCell><mxCell id="12" value="full name" style="text;html=1;strokeColor=none;fillColor=none;align=center;verticalAlign=middle;whiteSpace=wrap;rounded=0;" parent="1" vertex="1"><mxGeometry x="451" y="245" width="60" height="30" as="geometry"/></mxCell><mxCell id="13" value="user" style="text;html=1;strokeColor=none;fillColor=none;align=center;verticalAlign=middle;whiteSpace=wrap;rounded=0;" parent="1" vertex="1"><mxGeometry x="250" y="335" width="60" height="30" as="geometry"/></mxCell><mxCell id="14" value="score" style="text;html=1;strokeColor=none;fillColor=none;align=center;verticalAlign=middle;whiteSpace=wrap;rounded=0;" parent="1" vertex="1"><mxGeometry x="251" y="290" width="60" height="30" as="geometry"/></mxCell><mxCell id="15" value="user" style="text;html=1;strokeColor=none;fillColor=none;align=center;verticalAlign=middle;whiteSpace=wrap;rounded=0;" parent="1" vertex="1"><mxGeometry x="315" y="336" width="51" height="30" as="geometry"/></mxCell><mxCell id="16" value="&lt;u&gt;user id&lt;/u&gt;" style="text;html=1;strokeColor=none;fillColor=none;align=center;verticalAlign=middle;whiteSpace=wrap;rounded=0;" parent="1" vertex="1"><mxGeometry x="261" y="246" width="49" height="30" as="geometry"/></mxCell><mxCell id="17" value="" style="shape=table;startSize=0;container=1;collapsible=0;childLayout=tableLayout;" parent="1" vertex="1"><mxGeometry x="251" y="330" width="120" height="40" as="geometry"/></mxCell><mxCell id="18" value="" style="shape=tableRow;horizontal=0;startSize=0;swimlaneHead=0;swimlaneBody=0;top=0;left=0;bottom=0;right=0;collapsible=0;dropTarget=0;fillColor=none;points=[[0,0.5],[1,0.5]];portConstraint=eastwest;" parent="17" vertex="1"><mxGeometry width="120" height="40" as="geometry"/></mxCell><mxCell id="19" value="&lt;u&gt;score id&lt;/u&gt;" style="shape=partialRectangle;html=1;whiteSpace=wrap;connectable=0;overflow=hidden;fillColor=none;top=0;left=0;bottom=0;right=0;pointerEvents=1;" parent="18" vertex="1"><mxGeometry width="60" height="40" as="geometry"><mxRectangle width="60" height="40" as="alternateBounds"/></mxGeometry></mxCell><mxCell id="20" value="score number" style="shape=partialRectangle;html=1;whiteSpace=wrap;connectable=0;overflow=hidden;fillColor=none;top=0;left=0;bottom=0;right=0;pointerEvents=1;" parent="18" vertex="1"><mxGeometry x="60" width="60" height="40" as="geometry"><mxRectangle width="60" height="40" as="alternateBounds"/></mxGeometry></mxCell><mxCell id="21" value="" style="shape=table;startSize=0;container=1;collapsible=0;childLayout=tableLayout;" parent="1" vertex="1"><mxGeometry x="251" y="420" width="180" height="40" as="geometry"/></mxCell><mxCell id="22" value="" style="shape=tableRow;horizontal=0;startSize=0;swimlaneHead=0;swimlaneBody=0;top=0;left=0;bottom=0;right=0;collapsible=0;dropTarget=0;fillColor=none;points=[[0,0.5],[1,0.5]];portConstraint=eastwest;" parent="21" vertex="1"><mxGeometry width="180" height="40" as="geometry"/></mxCell><mxCell id="23" value="" style="shape=partialRectangle;html=1;whiteSpace=wrap;connectable=0;overflow=hidden;fillColor=none;top=0;left=0;bottom=0;right=0;pointerEvents=1;" parent="22" vertex="1"><mxGeometry width="60" height="40" as="geometry"><mxRectangle width="60" height="40" as="alternateBounds"/></mxGeometry></mxCell><mxCell id="24" value="" style="shape=partialRectangle;html=1;whiteSpace=wrap;connectable=0;overflow=hidden;fillColor=none;top=0;left=0;bottom=0;right=0;pointerEvents=1;" parent="22" vertex="1"><mxGeometry x="60" width="60" height="40" as="geometry"><mxRectangle width="60" height="40" as="alternateBounds"/></mxGeometry></mxCell><mxCell id="25" style="shape=partialRectangle;html=1;whiteSpace=wrap;connectable=0;overflow=hidden;fillColor=none;top=0;left=0;bottom=0;right=0;pointerEvents=1;" parent="22" vertex="1"><mxGeometry x="120" width="60" height="40" as="geometry"><mxRectangle width="60" height="40" as="alternateBounds"/></mxGeometry></mxCell><mxCell id="26" value="game" style="shape=partialRectangle;html=1;whiteSpace=wrap;connectable=0;overflow=hidden;fillColor=none;top=0;left=0;bottom=0;right=0;pointerEvents=1;" parent="1" vertex="1"><mxGeometry x="251" y="380" width="60" height="40" as="geometry"><mxRectangle width="60" height="40" as="alternateBounds"/></mxGeometry></mxCell><mxCell id="27" value="game name" style="shape=partialRectangle;html=1;whiteSpace=wrap;connectable=0;overflow=hidden;fillColor=none;top=0;left=0;bottom=0;right=0;pointerEvents=1;" parent="1" vertex="1"><mxGeometry x="311" y="420" width="60" height="40" as="geometry"><mxRectangle width="60" height="40" as="alternateBounds"/></mxGeometry></mxCell><mxCell id="28" value="&lt;u&gt;game id&lt;/u&gt;" style="shape=partialRectangle;html=1;whiteSpace=wrap;connectable=0;overflow=hidden;fillColor=none;top=0;left=0;bottom=0;right=0;pointerEvents=1;" parent="1" vertex="1"><mxGeometry x="250" y="420" width="60" height="40" as="geometry"><mxRectangle width="60" height="40" as="alternateBounds"/></mxGeometry></mxCell><mxCell id="29" value="&lt;u&gt;score id&lt;/u&gt;" style="shape=partialRectangle;html=1;whiteSpace=wrap;connectable=0;overflow=hidden;fillColor=none;top=0;left=0;bottom=0;right=0;pointerEvents=1;" parent="1" vertex="1"><mxGeometry x="521" y="240" width="60" height="40" as="geometry"><mxRectangle width="60" height="40" as="alternateBounds"/></mxGeometry></mxCell><mxCell id="30" value="&lt;u&gt;score id&lt;/u&gt;" style="shape=partialRectangle;html=1;whiteSpace=wrap;connectable=0;overflow=hidden;fillColor=none;top=0;left=0;bottom=0;right=0;pointerEvents=1;" parent="1" vertex="1"><mxGeometry x="371" y="420" width="60" height="40" as="geometry"><mxRectangle width="60" height="40" as="alternateBounds"/></mxGeometry></mxCell><mxCell id="35" value="user_game" style="shape=partialRectangle;html=1;whiteSpace=wrap;connectable=0;overflow=hidden;fillColor=none;top=0;left=0;bottom=0;right=0;pointerEvents=1;" parent="1" vertex="1"><mxGeometry x="250" y="470" width="60" height="40" as="geometry"><mxRectangle width="60" height="40" as="alternateBounds"/></mxGeometry></mxCell><mxCell id="46" value="" style="shape=table;startSize=0;container=1;collapsible=0;childLayout=tableLayout;" vertex="1" parent="1"><mxGeometry x="250" y="510" width="180" height="40" as="geometry"/></mxCell><mxCell id="47" value="" style="shape=tableRow;horizontal=0;startSize=0;swimlaneHead=0;swimlaneBody=0;top=0;left=0;bottom=0;right=0;collapsible=0;dropTarget=0;fillColor=none;points=[[0,0.5],[1,0.5]];portConstraint=eastwest;" vertex="1" parent="46"><mxGeometry width="180" height="40" as="geometry"/></mxCell><mxCell id="48" value="" style="shape=partialRectangle;html=1;whiteSpace=wrap;connectable=0;overflow=hidden;fillColor=none;top=0;left=0;bottom=0;right=0;pointerEvents=1;" vertex="1" parent="47"><mxGeometry width="60" height="40" as="geometry"><mxRectangle width="60" height="40" as="alternateBounds"/></mxGeometry></mxCell><mxCell id="49" value="" style="shape=partialRectangle;html=1;whiteSpace=wrap;connectable=0;overflow=hidden;fillColor=none;top=0;left=0;bottom=0;right=0;pointerEvents=1;" vertex="1" parent="47"><mxGeometry x="60" width="60" height="40" as="geometry"><mxRectangle width="60" height="40" as="alternateBounds"/></mxGeometry></mxCell><mxCell id="50" value="" style="shape=partialRectangle;html=1;whiteSpace=wrap;connectable=0;overflow=hidden;fillColor=none;top=0;left=0;bottom=0;right=0;pointerEvents=1;" vertex="1" parent="47"><mxGeometry x="120" width="60" height="40" as="geometry"><mxRectangle width="60" height="40" as="alternateBounds"/></mxGeometry></mxCell><mxCell id="37" value="&lt;u&gt;user id&lt;/u&gt;" style="text;html=1;strokeColor=none;fillColor=none;align=center;verticalAlign=middle;whiteSpace=wrap;rounded=0;" parent="1" vertex="1"><mxGeometry x="255.5" y="515" width="49" height="30" as="geometry"/></mxCell><mxCell id="36" value="&lt;u&gt;game id&lt;/u&gt;" style="shape=partialRectangle;html=1;whiteSpace=wrap;connectable=0;overflow=hidden;fillColor=none;top=0;left=0;bottom=0;right=0;pointerEvents=1;" parent="1" vertex="1"><mxGeometry x="310" y="510" width="60" height="40" as="geometry"><mxRectangle width="60" height="40" as="alternateBounds"/></mxGeometry></mxCell><mxCell id="51" value="&lt;u&gt;id&lt;/u&gt;" style="text;html=1;strokeColor=none;fillColor=none;align=center;verticalAlign=middle;whiteSpace=wrap;rounded=0;" vertex="1" parent="1"><mxGeometry x="376" y="515" width="49" height="30" as="geometry"/></mxCell></root></mxGraphModel></diagram></mxfile>